<svg xmlns="http://www.w3.org/2000/svg" fill="none" viewBox="0 0 600 600"><path fill="#1A1919" d="M241.7 53.4a36.7 36.7 0 0 0-52 0h-.2a37 37 0 0 0 0 52l.2.2a36.7 36.7 0 0 0 52 0l.1-.2a36 36 0 0 0 10.7-26c0-10.2-4-19.4-10.7-26m-26 504a37 37 0 0 0 26-10.7l.1-.2a36.7 36.7 0 0 0 0-52 36 36 0 0 0-26.2-10.8c-10.2 0-19.3 4-25.9 10.8h-.2a37 37 0 0 0 0 52l.2.2a37 37 0 0 0 26 10.7m200.5-111.6a36 36 0 0 0 22.5-17l.7-1.4a37 37 0 0 0 2.9-26.6 36 36 0 0 0-17.2-22.5l-.5-.3a37 37 0 0 0-36.4 64.3 37 37 0 0 0 28 3.5M253.4 262.3a53.4 53.4 0 1 0-75.6 75.3 53.4 53.4 0 0 0 75.6-75.3m-21.2-62.8a101 101 0 0 1 55.4 28.6 105 105 0 0 1 6.8 7.5l36.8-21.3A79 79 0 0 1 367 121l.6-.3A79.3 79.3 0 0 1 475.5 150a79 79 0 0 1-29.1 108.4l-5 3h-.5a80 80 0 0 1-93.3-18.6L311 264a101 101 0 0 1 0 72l36.7 21.1a78 78 0 0 1 38.5-23.6 79 79 0 0 1 60.3 8l1.2.6A79 79 0 0 1 475.5 450l-.7 1.4v-.2a80 80 0 0 1-47.5 36 80 80 0 0 1-60.3-8v-.1a79 79 0 0 1-35.8-93.4l-36.8-21.2a102 102 0 0 1-6.7 7.4l-.1.1c-14.7 14.8-34 25-55.4 28.4v42.5a79 79 0 0 1 39.7 133.7v.2a79.5 79.5 0 0 1-112.3 0v-.2a79 79 0 0 1 0-112v-.1a79 79 0 0 1 39.6-21.6v-42.5a100 100 0 0 1-55.3-28.4h-.2a101.6 101.6 0 0 1 0-143.8h.2a101 101 0 0 1 55.3-28.6v-42.3a79.2 79.2 0 0 1-39.7-133.9 79 79 0 0 1 112.3 0 79.3 79.3 0 0 1 0 112.2v.1a81 81 0 0 1-39.6 21.6zm206.5-28.2-.3-.4a37 37 0 0 0-50.2-13.1 37 37 0 0 0-13.5 50.4l.2.2a36 36 0 0 0 22.3 16.8c9 2.6 19.2 1.5 27.9-3.6l.5-.2a37 37 0 0 0 13-50"/></svg>